<?xml version="1.0" encoding="UTF-8"?>
<svg data-bbox="0.005 0 129.135 109.37" viewBox="0 0 129.39 109.62" xmlns="http://www.w3.org/2000/svg" data-type="ugc">
    <g>
        <path d="M45.13 92.95s.54-19.81 14.66-20 15.06 14.66 15.47 20" stroke="#1d1d1b" fill="none" stroke-miterlimit="10"/>
        <path d="M79.19 92.95s.52-19.81 14-20 14.39 14.66 14.78 20" stroke="#1d1d1b" fill="none" stroke-miterlimit="10"/>
        <path d="M28.3 56.21s1.77-15.76 13.3-16.44c11.4 0 12.35 12.35 12.35 12.35" stroke="#1d1d1b" fill="none" stroke-miterlimit="10"/>
        <path d="M61.01 49.95s3.53-10.32 11.18-10.18 13.3 7 14.24 12.89" stroke="#1d1d1b" fill="none" stroke-miterlimit="10"/>
        <path stroke="#1d1d1b" fill="none" stroke-miterlimit="10" d="M51.38 30.16a9.55 9.55 0 1 1-19.1 0 9.55 9.55 0 0 1 19.1 0z"/>
        <path stroke="#1d1d1b" fill="none" stroke-miterlimit="10" d="M82.3 30.16a9.55 9.55 0 1 1-19.1 0 9.55 9.55 0 0 1 19.1 0z"/>
        <path stroke="#1d1d1b" fill="none" stroke-miterlimit="10" d="M104.85 61.8c0 6.12-4.96 11.08-11.08 11.08S82.69 67.92 82.69 61.8s4.96-11.08 11.08-11.08 11.08 4.96 11.08 11.08z"/>
        <path stroke="#1d1d1b" fill="none" stroke-miterlimit="10" d="M71.27 61.8c0 6.12-4.96 11.08-11.08 11.08S49.11 67.92 49.11 61.8s4.96-11.08 11.08-11.08 11.08 4.96 11.08 11.08z"/>
        <path d="M7.85 70.78l2.1-8.22a14.72 14.72 0 0 1 4.67-4.84c3.22-2.09 5.8-2.9 12.57-.8s8.38 3.77 10 6.31a9.8 9.8 0 0 1 1.29 5.61l-1.77 9.83" stroke="#1d1d1b" fill="none" stroke-miterlimit="10"/>
        <path d="M10.29 71.05s-7.85-3-9.81 4.58 2.61 10.8 5.31 11.21c0 0 .08 1.06 1.56 1.22a3.51 3.51 0 0 0 2.61-1l3.68-13.74s.33-2-1.22-2.53-2.13.26-2.13.26z" fill="#1d1d1b"/>
        <path d="M30.19 92.95s7.76 3 9.76-4.5-2.53-10.75-5.21-11.17c0 0-.07-1.06-1.53-1.23a3.52 3.52 0 0 0-2.6 1l-3.73 13.61s-.34 2 1.2 2.53 2.11-.24 2.11-.24z" fill="#1d1d1b"/>
        <path fill="#ffffff" d="M12.194 73.182L8.847 85.868a.781.781 0 0 1-.953.555l-.406-.107a.78.78 0 0 1-.556-.953l3.347-12.686a.781.781 0 0 1 .954-.555l.406.107c.415.11.665.537.555.953z"/>
        <path fill="#ffffff" d="M33.469 78.792l-3.347 12.686a.781.781 0 0 1-.953.555l-.406-.107a.78.78 0 0 1-.556-.953l3.348-12.686a.781.781 0 0 1 .953-.555l.406.107a.78.78 0 0 1 .555.953z"/>
        <path fill="#1d1d1b" d="M102.638 37.854l-.822-2.008 19.094-7.812.822 2.009-19.094 7.811z"/>
        <path stroke="#1d1d1b" fill="none" stroke-miterlimit="10" d="M112.048 7.424l12.187 27.828a3.63 3.63 0 0 1-1.87 4.781l-12.31 5.392a3.63 3.63 0 0 1-4.782-1.87L93.087 15.728a3.63 3.63 0 0 1 1.868-4.78l12.312-5.392a3.63 3.63 0 0 1 4.781 1.869z"/>
        <path fill="#1d1d1b" d="M116.65 37.73a2.04 2.04 0 1 1-4.08 0 2.04 2.04 0 0 1 4.08 0z"/>
        <path fill="#cc1719" d="M77.3 10.66a2.04 2.04 0 1 1-4.08 0 2.04 2.04 0 0 1 4.08 0z"/>
        <path fill="#cc1719" d="M96.62 2.04a2.04 2.04 0 1 1-4.08 0 2.04 2.04 0 0 1 4.08 0z"/>
        <path fill="#cc1719" d="M95.84 36.45a4.08 4.08 0 1 1-8.16 0 4.08 4.08 0 0 1 8.16 0z"/>
        <path fill="#cc1719" d="M13.64 33.77a2.59 2.59 0 1 1-5.18 0 2.59 2.59 0 0 1 5.18 0z"/>
        <path fill="#cc1719" d="M22.29 44.08a1.98 1.98 0 1 1-3.96 0 1.98 1.98 0 0 1 3.96 0z"/>
        <path stroke-width=".75" stroke="#1d1d1b" fill="none" stroke-miterlimit="10" d="M15.56 52.88l1.48-4.89"/>
        <path stroke-width=".75" stroke="#1d1d1b" fill="none" stroke-miterlimit="10" d="M13.39 52.88l-2.57-3.9"/>
        <path stroke-width=".75" stroke="#1d1d1b" fill="none" stroke-miterlimit="10" d="M11.91 54.56l-4.49-1.33"/>
        <path stroke="#cc1719" stroke-width=".5" fill="none" stroke-miterlimit="10" d="M111.21 55.77l2.73-.53"/>
        <path stroke="#cc1719" stroke-width=".5" fill="none" stroke-miterlimit="10" d="M117.04 54.35l2.73-1.32"/>
        <path stroke="#cc1719" stroke-width=".5" fill="none" stroke-miterlimit="10" d="M122.6 51.08l2.04-1.76"/>
        <path stroke="#cc1719" stroke-width=".5" fill="none" stroke-miterlimit="10" d="M126.58 46.75l1.24-2.91"/>
        <path stroke="#cc1719" stroke-width=".5" fill="none" stroke-miterlimit="10" d="M128.79 40.57l.35-3.32"/>
        <path stroke="#cc1719" stroke-width=".5" fill="none" stroke-miterlimit="10" d="M32.59 93.51l1.71 3.12"/>
        <path stroke="#cc1719" stroke-width=".5" fill="none" stroke-miterlimit="10" d="M36.3 98.76l2.2 2.29"/>
        <path stroke="#cc1719" stroke-width=".5" fill="none" stroke-miterlimit="10" d="M40.44 103.04l2.7 2"/>
        <path stroke="#cc1719" stroke-width=".5" fill="none" stroke-miterlimit="10" d="M45.99 106.75l2.43 1.14"/>
        <path stroke="#cc1719" stroke-width=".5" fill="none" stroke-miterlimit="10" d="M51.62 108.88l3.22.36"/>
        <path stroke="#cc1719" stroke-width=".5" fill="none" stroke-miterlimit="10" d="M57.67 109.37l3.63-.13"/>
        <path d="M63.88 108.87c.31 0 3.29-.77 3.29-.77" stroke="#cc1719" stroke-width=".5" fill="none" stroke-miterlimit="10"/>
        <path stroke="#cc1719" stroke-width=".5" fill="none" stroke-miterlimit="10" d="M69.81 107.32l3.35-1.1"/>
    </g>
</svg>
