<?xml version="1.0" encoding="UTF-8"?>
<svg data-bbox="0.97 1 99.688 86.52" viewBox="0 0 100.78 88.56" xmlns="http://www.w3.org/2000/svg" data-type="ugc">
    <g>
        <defs>
            <clipPath transform="translate(-22.93 -18.57)" id="d558d7e4-0ff5-4088-8fee-b9dd5984ad44">
                <path d="M112.93 18.57v88.56h-90V18.57h90z"/>
            </clipPath>
        </defs>
        <g clip-path="url(#d558d7e4-0ff5-4088-8fee-b9dd5984ad44)">
            <path d="M51.82 87.05a43.64 43.64 0 0 0 36.91-37.88" stroke-dasharray="5.9 3.9" stroke="#d0232a" stroke-width="2" fill="none"/>
            <path d="M88.46 37.43a43.71 43.71 0 0 0-38.57-36.2" stroke-dasharray="5.9 3.9" stroke="#d0232a" stroke-width="2" fill="none"/>
            <path d="M38.18 1.52a43.64 43.64 0 0 0-36.9 37.91" stroke-dasharray="5.9 3.9" stroke="#d0232a" stroke-width="2" fill="none"/>
            <path d="M1.55 51.1a43.71 43.71 0 0 0 38.57 36.2" stroke-dasharray="5.9 3.9" stroke="#d0232a" stroke-width="2" fill="none"/>
            <path d="M42.07 87.43q1.45.09 2.94.09c1 0 2 0 2.95-.09M1.07 41.34c-.06 1-.1 2-.1 2.94s0 2 .1 2.95M47.95 1.1c-1-.07-2-.1-2.95-.1s-2 0-2.94.1M88.9 47.23c.07-1 .1-2 .1-2.95s0-2-.1-2.94" stroke="#d0232a" stroke-width="2" fill="none"/>
        </g>
        <path stroke="#000000" stroke-width="1.5" stroke-miterlimit="10" fill="none" d="M79.35 45.08c0 18.838-15.272 34.11-34.11 34.11S11.13 63.918 11.13 45.08s15.272-34.11 34.11-34.11 34.11 15.272 34.11 34.11z"/>
        <path stroke="#000000" stroke-width="1.5" stroke-miterlimit="10" fill="none" d="M69.89 45.08c0 13.614-11.036 24.65-24.65 24.65-13.614 0-24.65-11.036-24.65-24.65 0-13.614 11.036-24.65 24.65-24.65 13.614 0 24.65 11.036 24.65 24.65z"/>
        <path stroke="#000000" stroke-width="1.5" stroke-miterlimit="10" fill="none" d="M61.79 45.42c0 8.953-7.257 16.21-16.21 16.21-8.953 0-16.21-7.257-16.21-16.21 0-8.953 7.257-16.21 16.21-16.21 8.953 0 16.21 7.257 16.21 16.21z"/>
        <path d="M71.52 21.43s-7.06 2.7-11.6 6.75-14.13 14-14.13 14l-1.26-.75S56.89 28.14 57.9 26.34s4-10.36 4-10.36a26.45 26.45 0 0 0 1-4.06c0-.9.51-1.35 1.52-1.8s2.52-.9 3 .45 4 4.29 4 4.29a11.7 11.7 0 0 0 3 1.57c1.51.45 1.51.45 1.51 1.35s0 1.35-1 1.8-3.41 1.85-3.41 1.85z" stroke="#ffffff" stroke-width=".25" stroke-miterlimit="10"/>
        <path d="M46.35 44l28.72-15.57 3.65-1.88s18.79-1.89 20.87-3.31.48-3.81.48-3.81-4.7-2.84-4.7-5.2 0-5.66-2.09-5.66-5.21 4.28-5.21 4.28l-9.92 11.8-32.79 18.64z" stroke="#ffffff" stroke-width=".25" stroke-miterlimit="10"/>
        <path d="M46.88 45.43s23.48-1 24.52-1 13.56-4.72 15.13-5.19 8.35-3.3 9.39-1.89-3.65 6.14-3.65 7.56 4.7 4.72 4.7 7.55-25.57-6.14-25.57-6.14l-24.52.41z" stroke="#ffffff" stroke-width=".25" stroke-miterlimit="10"/>
        <path d="M52 44.74a6.42 6.42 0 1 1-12.84 0 6.42 6.42 0 0 1 12.84 0z"/>
    </g>
</svg>
